<svg xmlns="http://www.w3.org/2000/svg" width="375" height="361" viewBox="0 0 375 361" fill="none"><path d="M375 0H0V361H375V0Z" fill="#9E6850"></path><path d="M244.729 217.355C230.39 226.667 213.498 242.733 200.552 242.733C190.298 242.733 187.736 234.97 187.113 231.739C186.978 230.895 186.948 229.984 186.947 229.408C187.33 217.485 194.861 207.563 199.314 202.729C198.934 201.313 198.626 199.938 198.39 198.69C196.993 191.308 191.471 150.225 191.471 150.225C191.471 150.225 188.314 125.957 170.875 121C171.324 123.808 181.025 171.466 182.643 180.025C184.282 188.578 183.39 198.908 183.39 198.908C182.429 205.331 176.531 211.723 168.268 217.499C168.268 217.499 138.042 239.294 111 242.372V258H263V208.909C252.146 211.704 244.729 217.355 244.729 217.355Z" fill="white"></path><path d="M111 106V235.846C139.915 231.647 165.555 213.187 165.555 213.187C175.791 206.478 181.254 200.588 181.254 199.191C181.254 195.573 177.424 179.511 177.424 179.511C177.424 179.511 166.983 127.278 166.24 122.259C165.501 117.23 168.45 112.788 168.45 112.788C168.45 112.788 190.783 113.574 195.699 150.563C200.595 187.541 201.385 196.436 203.442 201.665C205.498 206.898 207.458 211.035 212.464 209.946C212.464 209.946 215.996 209.352 218.244 206.102C218.244 206.102 217.011 200.533 213.168 196.895L213.913 188.825C213.913 188.825 220.532 195.497 220.532 203.783C220.532 212.069 217.884 216.439 210.743 217.477C204.987 218.306 201.392 210.852 199.477 204.06C194.402 211.271 191.283 220.521 190.467 224.378C190.336 225.145 190.159 226.476 190.303 227.675C190.586 230.719 192.088 236 199.181 236C206.55 236 219.51 227.517 235.314 216.845C246.118 208.812 255.294 204.487 263 202.562V106H111ZM201.953 139.769H201.954C201.377 139.501 201.294 139.228 201.521 138.48C201.713 137.853 201.96 137.237 202.22 136.633C202.525 135.922 202.934 135.67 203.676 135.937C204.405 136.197 205.119 136.576 205.736 137.042C207.646 138.488 208.838 140.463 209.631 142.701C209.847 143.314 210.295 144.53 210.295 144.53L210.48 144.973C210.48 144.973 211.144 140.595 211.515 138.659C211.696 137.716 212.043 136.804 212.342 135.887C212.436 135.599 212.6 135.328 212.767 135.07C213.499 133.94 214.352 133.476 215.217 133.717C216.321 134.025 217.681 135.447 217.574 136.457C217.487 137.283 217.039 138.07 216.653 139.152C216.164 138.512 215.872 138.102 215.549 137.716C214.462 136.42 213.614 136.422 212.885 137.94C212.327 139.106 212.032 140.422 211.779 141.703C211.371 143.769 211.111 145.861 210.749 147.936C210.665 148.417 210.417 148.872 210.115 149.332C208.718 146.288 207.893 143.01 205.391 140.517C205.008 140.89 204.667 140.949 204.313 140.819C204.311 140.819 204.313 140.821 204.311 140.821C204.3 140.819 204.259 140.802 204.197 140.777L204.191 140.773C203.711 140.57 201.953 139.769 201.953 139.769ZM216.271 179.689L208.052 174.844L211.073 169.643L203.839 165.368L207.713 158.708L215.936 163.56L212.916 168.765L220.169 173.038L216.271 179.689Z" fill="white"></path><path d="M127.198 295.995C126.694 295.388 126.153 294.721 125.58 293.991C125.005 293.26 124.406 292.495 123.789 291.696C123.168 290.896 122.572 290.13 121.997 289.396C121.422 288.664 120.902 287.997 120.44 287.391C120.169 287.034 119.932 286.725 119.728 286.461C120.218 286.354 120.749 286.2 121.316 285.998C122.135 285.703 122.909 285.29 123.619 284.765C124.342 284.227 124.959 283.542 125.455 282.732C125.966 281.897 126.226 280.891 126.226 279.746C126.226 278.674 126.026 277.76 125.631 277.033C125.241 276.304 124.697 275.705 124.015 275.256C123.349 274.819 122.566 274.499 121.685 274.31C120.825 274.123 119.905 274.029 118.952 274.029L117.925 274.035C116.779 274.04 114.937 274.051 113.491 274.051C111.999 274.051 111.538 274.04 111.415 274.031L111 274L111.019 274.422C111.086 275.909 111.145 277.369 111.2 278.797C111.255 280.175 111.282 281.602 111.282 283.16V288.97C111.282 290.507 111.255 291.981 111.2 293.348C111.145 294.793 111.019 297.607 111.019 297.607L111.001 298H115.027L115.009 297.605C115.009 297.605 114.88 294.793 114.826 293.348C114.771 291.913 114.744 290.441 114.744 288.97V286.881H115.479C116.137 287.581 116.862 288.427 117.688 289.46C118.537 290.529 119.371 291.603 120.189 292.682C121.004 293.758 121.748 294.771 122.42 295.713C123.096 296.662 123.929 297.842 123.929 297.842L124.04 298H129L128.413 297.367C128.411 297.365 127.7 296.596 127.198 295.995ZM114.744 283.16C114.744 281.98 114.766 280.755 114.808 279.524L114.93 276.162C115.211 276.133 115.532 276.106 115.894 276.084C116.381 276.049 117.002 276.032 117.793 276.032C118.33 276.032 118.897 276.093 119.478 276.212C120.024 276.324 120.539 276.539 121.008 276.849C121.471 277.159 121.839 277.565 122.133 278.092C122.421 278.604 122.566 279.274 122.566 280.085C122.566 281.016 122.379 281.796 122.011 282.4C121.628 283.017 121.149 283.511 120.584 283.869C119.998 284.243 119.351 284.506 118.66 284.651C117.478 284.9 116.317 284.9 115.406 284.845C115.181 284.833 114.959 284.809 114.744 284.774V283.16Z" fill="white"></path><path d="M156.688 295.557C155.96 295.612 155.187 295.658 154.367 295.69C153.551 295.726 152.718 295.743 151.867 295.743H149.863C149.849 295.348 149.837 294.842 149.829 294.221C149.816 293.39 149.814 292.331 149.814 291.05V287.705C149.814 287.356 149.815 287.064 149.828 286.829C149.833 286.725 149.837 286.626 149.839 286.529C150.187 286.532 150.607 286.536 151.101 286.545C151.787 286.558 152.521 286.569 153.297 286.578C154.07 286.589 154.841 286.618 155.612 286.661C156.382 286.708 157.64 286.829 157.64 286.829L158.053 286.868V283.989L157.647 284.022C157.647 284.022 156.633 284.104 156.083 284.139C155.691 284.163 155.276 284.185 154.834 284.211L154.28 284.24C153.631 284.271 152.914 284.303 152.128 284.325C151.444 284.343 150.682 284.354 149.844 284.356C149.842 283.961 149.837 283.453 149.829 282.834C149.816 282.005 149.814 281.152 149.814 280.273C149.814 279.449 149.828 278.709 149.861 278.065C149.89 277.52 149.915 276.951 149.935 276.36C150.878 276.364 151.698 276.38 152.394 276.41C153.177 276.444 153.9 276.481 154.563 276.527C155.225 276.571 155.855 276.617 156.452 276.663C157.049 276.707 158.431 276.795 158.431 276.795L158.831 276.821V274.002L158.439 274.018C158.439 274.018 156.425 274.103 155.436 274.138C153.46 274.204 151.425 274.204 149.432 274.138C148.432 274.103 147.425 274.066 146.413 274.018L146 274L146.02 274.413C146.09 275.853 146.15 277.294 146.206 278.735C146.262 280.15 146.29 281.623 146.29 283.111V288.923C146.29 290.412 146.262 291.88 146.206 293.284C146.15 294.711 146.09 296.147 146.02 297.587L146 298L146.413 297.982C147.399 297.936 148.399 297.914 149.47 297.914H155.601C156.597 297.914 158.61 297.982 158.61 297.982L159 297.995V295.234L158.562 295.308C158.55 295.31 157.393 295.504 156.688 295.557Z" fill="white"></path><path d="M191.042 274.13C188.085 274.197 184.914 274.197 181.957 274.13C180.476 274.096 177.405 274.011 177.405 274.011L177 274V276.943L177.441 276.892C177.441 276.892 178.482 276.77 179.1 276.724C179.72 276.68 180.363 276.64 181.032 276.609C181.699 276.574 182.367 276.554 183.03 276.541C183.56 276.532 184.072 276.526 184.566 276.524C184.629 278.771 184.661 280.998 184.661 283.149V288.963C184.661 290.385 184.632 291.86 184.574 293.345C184.514 294.789 184.379 297.605 184.379 297.607L184.36 298H188.642L188.623 297.607C188.623 297.605 188.487 294.789 188.426 293.345C188.368 291.884 188.339 290.411 188.339 288.963V283.149C188.339 280.959 188.371 278.731 188.435 276.524C188.929 276.526 189.44 276.532 189.97 276.541C190.635 276.554 191.3 276.574 191.968 276.609C192.637 276.64 193.28 276.68 193.9 276.724C194.517 276.77 195.558 276.892 195.559 276.892L196 276.943V274L195.595 274.011C195.595 274.011 192.526 274.096 191.042 274.13Z" fill="white"></path><path d="M230.635 295.035C230.186 293.972 229.682 292.767 229.122 291.417C228.565 290.073 227.966 288.61 227.332 287.046C226.694 285.474 226.057 283.896 225.423 282.305C224.786 280.713 224.16 279.135 223.547 277.58C222.931 276.025 222.361 274.576 221.838 273.239L221.744 273H220.633L220.537 273.231C218.825 277.36 217.125 281.42 215.438 285.414C213.765 289.355 210.273 297.374 210.238 297.455L210 298H213.274L213.355 297.729C213.362 297.705 214.073 295.313 214.632 293.715C215.179 292.154 215.79 290.509 216.447 288.817C217.044 288.798 217.633 288.785 218.213 288.775C219.562 288.753 220.979 288.753 222.381 288.775C223.021 288.785 223.651 288.798 224.273 288.817C224.535 289.511 224.813 290.236 225.109 290.992L226.079 293.482C226.396 294.3 226.684 295.078 226.947 295.826C227.207 296.567 227.567 297.733 227.567 297.733L227.65 298H232L231.731 297.44C231.725 297.427 231.075 296.075 230.635 295.035ZM223.514 286.483C223.08 286.497 222.648 286.508 222.215 286.513C221.034 286.54 219.88 286.542 218.615 286.498C218.192 286.483 217.78 286.474 217.379 286.468L220.414 279.026L223.514 286.483Z" fill="white"></path><path d="M262.591 295.307C262.559 295.311 259.382 295.662 257.977 295.693C256.653 295.726 255.274 295.741 253.838 295.742C253.818 294.188 253.797 292.447 253.777 290.52C253.755 288.433 253.746 285.973 253.746 283.135C253.746 281.634 253.773 280.167 253.826 278.771C253.882 277.338 254.009 274.393 254.009 274.393L254.026 274H250.003L250.02 274.393C250.02 274.393 250.148 277.338 250.203 278.771C250.258 280.198 250.285 281.666 250.285 283.135V288.951C250.285 290.419 250.258 291.892 250.203 293.332C250.148 294.772 250.088 296.192 250.02 297.588L250 298L250.404 297.983C251.501 297.938 252.5 297.916 253.457 297.916H259.578C260.591 297.916 262.617 297.983 262.619 297.983L263 297.996V295.263L262.591 295.307Z" fill="white"></path></svg>